<?xml version="1.0" encoding="UTF-8"?><svg id="Layer_1" xmlns="http://www.w3.org/2000/svg" viewBox="0 0 1000 1000"><defs><style>.cls-1{fill:#f2f2f2;}.cls-2{fill:#c6b198;}.cls-3{fill:#fdfdfd;}</style></defs><path class="cls-3" d="M983.77,373.79c.02,11.82-.87,23.55-1.9,35.33-1.83,21.33-5.67,42.26-11.14,62.91-4.58,17.25-10.38,34.11-17.42,50.53-3.6,8.37-7.26,16.7-11.47,24.79-11.58,22.24-24.75,43.46-40.43,63.09-3.99,5.02-7.92,10.12-12.32,14.78-.98,1.05-.87,1.55.04,2.55,16.92,18.56,31.6,38.82,44.51,60.27,12.28,20.39,22.98,41.61,31.42,63.91,2.49,6.63,2.46,6.45-4.01,8.88-19.21,7.15-38.38,14.44-57.57,21.68-8.2,3.1-16.42,6.15-24.55,9.4-2.62,1.05-3.18-.59-3.79-2.22-3.99-10.77-8.81-21.15-14.07-31.34-9.12-17.62-19.76-34.26-32.16-49.76-4.14-5.19-8.44-10.23-12.71-15.31-1.29-1.53-2.27-1.33-3.69-.35-16.86,11.91-34.98,21.63-53.62,30.35-18.82,8.77-38.27,15.83-58.29,21.44-13.15,3.71-26.52,6.43-39.95,8.79-7.33,1.29-14.76,2.16-22.2,2.9-9.94.98-19.84,1.83-29.83,1.98-3.27.07-6.61.44-9.92.55-1.72.04-2.38-.59-2.22-2.27.09-.85.02-1.72.02-2.57-.02-56.87-.02-113.74-.04-170.61-7.83-2.4-15.66-4.75-23.49-7.2-13.72-4.23-26.95-9.66-40.04-15.53-20.98-9.4-40.82-20.85-59.75-33.84-10.31-7.09-20.15-14.85-29.74-22.92-11.69-9.79-22.4-20.59-33.12-31.38-2.2-2.22-4.01-4.82-6.8-7.26v3.62c0,40.89-.02,81.8.09,122.7,0,2.86-.68,3.6-3.51,3.47-5.17-.26-10.36.2-15.53-.13-9.09-.59-18.16-1.35-27.21-2.4-10.47-1.2-20.85-2.9-31.18-4.78-9.2-1.7-18.3-4.12-27.32-6.61-14.63-4.01-29-8.9-42.98-14.74-14.7-6.15-29.05-13-42.87-20.98-9.94-5.76-19.73-11.69-29.18-18.23-9.14-6.35-17.99-13.11-26.65-20.13-12.82-10.4-24.73-21.78-36.09-33.71-10.6-11.1-20.41-22.92-29.46-35.3-8.24-11.3-15.96-22.94-22.98-35.06-7.37-12.71-14.06-25.75-19.97-39.19-6.63-15.02-12.15-30.46-16.81-46.21-3.82-12.8-6.8-25.78-9.22-38.92-1.74-9.53-3.16-19.08-4.25-28.68-.81-6.96-1.24-14-1.59-21.02-.31-6.32-.35-12.65-.55-18.95-.04-1.83.48-2.33,2.31-2.31,30.86.04,61.73.04,92.59,0,1.83-.02,2.27.5,2.33,2.31.31,8.42.46,16.88,1.31,25.25,1.37,13.35,3.49,26.6,6.61,39.71,3.86,16.09,9.05,31.77,15.53,46.97,5.41,12.73,11.82,25.03,19.08,36.87,7.22,11.69,15.35,22.72,23.86,33.49,2.51,3.16,5.21,6.19,8.07,9.05,4.95,4.97,9.01,10.79,14.65,15.13,3.38,2.59,6.19,5.89,9.4,8.74,8.29,7.37,16.97,14.22,25.99,20.65,14.65,10.45,30.53,18.8,46.73,26.49,6.89,3.29,14.02,6.19,21.37,8.59.63-1.29.31-2.57.31-3.82.02-88.6.02-177.22-.04-265.82,0-2.81.55-3.71,3.58-3.69,30.11.13,60.23.11,90.34,0,2.62,0,3.36.52,3.36,3.27,0,10.45.59,20.91,1.96,31.25,2.33,17.51,5.82,34.78,11.14,51.68,5.74,18.23,13.13,35.72,22.2,52.49,7.87,14.54,17.01,28.28,27.43,41.17,5.47,6.78,11.19,13.32,17.12,19.71,13.11,14.11,27.78,26.32,43.33,37.64,15.11,10.99,31.53,19.58,48.26,27.63,6.8,3.27,13.83,6.15,21.48,8.59v-3.86c0-88.6,0-177.2-.11-265.82,0-3.18.83-3.77,3.86-3.75,30.11.13,60.21.09,90.32.02,2.18,0,3.12.2,3.12,2.86-.11,127.79-.11,255.57-.13,383.36,0,.33-.02.65-.04.96.02,15.11.07,30.22.09,45.34,0,4.08.02,4.14,3.77,2.79,14.72-5.36,28.76-12.15,42.39-19.84,10.55-5.95,20.63-12.6,30.31-19.82,7.81-5.8,15.2-12.17,22.4-18.75,3.79-3.49,7.7-6.87,11.23-10.64,11.03-11.84,21.54-24.07,30.86-37.35,10.05-14.35,18.62-29.55,25.86-45.44,9.22-20.26,16.27-41.3,20.37-63.26,2.07-11.12,3.95-22.24,4.6-33.58.39-6.83,1.02-13.67,1.16-20.52.04-1.92.28-2.88,2.59-2.88,30.66.07,61.3.07,91.96,0,2.2,0,2.66.81,2.66,2.81Z"/><path class="cls-1" d="M693.71,210.64c-.11,127.79-.11,255.57-.13,383.36,0,.33-.02.65-.04.96-.98,1.11-2.31,1.05-3.6,1.09-8.29.35-16.59-.2-24.84-.83-15.92-1.2-31.73-3.36-47.39-6.37-6.37-1.24-12.65-2.77-18.93-4.3-.85-.22-1.64-.5-2.33-1.07-7.83-2.4-15.66-4.75-23.49-7.2-13.72-4.23-26.95-9.66-40.04-15.53-20.98-9.4-40.82-20.85-59.75-33.84-10.31-7.09-20.15-14.85-29.74-22.92-11.69-9.79-22.4-20.59-33.12-31.38-2.2-2.22-4.01-4.82-6.8-7.26v3.62c0,40.89-.02,81.8.09,122.7,0,2.86-.68,3.6-3.51,3.47-5.17-.26-10.36.2-15.53-.13-9.09-.59-18.16-1.35-27.21-2.4-10.47-1.2-20.85-2.9-31.18-4.78-9.2-1.7-18.3-4.12-27.32-6.61-14.63-4.01-29-8.9-42.98-14.74-14.7-6.15-29.05-13-42.87-20.98-9.94-5.76-19.73-11.69-29.18-18.23-9.14-6.35-17.99-13.11-26.65-20.13-12.82-10.4-24.73-21.78-36.09-33.71-10.6-11.1-20.41-22.92-29.46-35.3-8.24-11.3-15.96-22.94-22.98-35.06-7.37-12.71-14.06-25.75-19.97-39.19-6.63-15.02-12.15-30.46-16.81-46.21-3.82-12.8-6.8-25.78-9.22-38.92-1.74-9.53-3.16-19.08-4.25-28.68-.81-6.96-1.24-14-1.59-21.02-.31-6.32-.35-12.65-.55-18.95-.04-1.83.48-2.33,2.31-2.31,30.86.04,61.73.04,92.59,0,1.83-.02,2.27.5,2.33,2.31.31,8.42.46,16.88,1.31,25.25,1.37,13.35,3.49,26.6,6.61,39.71,3.86,16.09,9.05,31.77,15.53,46.97,5.41,12.73,11.82,25.03,19.08,36.87,7.22,11.69,15.35,22.72,23.86,33.49,2.51,3.16,5.21,6.19,8.07,9.05,4.95,4.97,9.01,10.79,14.65,15.13,3.38,2.59,6.19,5.89,9.4,8.74,8.29,7.37,16.97,14.22,25.99,20.65,14.65,10.45,30.53,18.8,46.73,26.49,6.89,3.29,14.02,6.19,21.37,8.59.63-1.29.31-2.57.31-3.82.02-88.6.02-177.22-.04-265.82,0-2.81.55-3.71,3.58-3.69,30.11.13,60.23.11,90.34,0,2.62,0,3.36.52,3.36,3.27,0,10.45.59,20.91,1.96,31.25,2.33,17.51,5.82,34.78,11.14,51.68,5.74,18.23,13.13,35.72,22.2,52.49,7.87,14.54,17.01,28.28,27.43,41.17,5.47,6.78,11.19,13.32,17.12,19.71,13.11,14.11,27.78,26.32,43.33,37.64,15.11,10.99,31.53,19.58,48.26,27.63,6.8,3.27,13.83,6.15,21.48,8.59v-3.86c0-88.6,0-177.2-.11-265.82,0-3.18.83-3.77,3.86-3.75,30.11.13,60.21.09,90.32.02,2.18,0,3.12.2,3.12,2.86Z"/><path class="cls-2" d="M983.77,373.79c.02,11.82-.87,23.55-1.9,35.33-1.83,21.33-5.67,42.26-11.14,62.91-4.58,17.25-10.38,34.11-17.42,50.53-3.6,8.37-7.26,16.7-11.47,24.79-11.58,22.24-24.75,43.46-40.43,63.09-3.99,5.02-7.92,10.12-12.32,14.78-.98,1.05-.87,1.55.04,2.55,16.92,18.56,31.6,38.82,44.51,60.27,12.28,20.39,22.98,41.61,31.42,63.91,2.49,6.63,2.46,6.45-4.01,8.88-19.21,7.15-38.38,14.44-57.57,21.68-8.2,3.1-16.42,6.15-24.55,9.4-2.62,1.05-3.18-.59-3.79-2.22-3.99-10.77-8.81-21.15-14.07-31.34-9.12-17.62-19.76-34.26-32.16-49.76-4.14-5.19-8.44-10.23-12.71-15.31-1.29-1.53-2.27-1.33-3.69-.35-16.86,11.91-34.98,21.63-53.62,30.35-18.82,8.77-38.27,15.83-58.29,21.44-13.15,3.71-26.52,6.43-39.95,8.79-7.33,1.29-14.76,2.16-22.2,2.9-9.94.98-19.84,1.83-29.83,1.98-3.27.07-6.61.44-9.92.55-1.72.04-2.38-.59-2.22-2.27.09-.85.02-1.72.02-2.57-.02-56.87-.02-113.74-.04-170.61,5.82.35,11.32,2.35,16.97,3.45,26.47,5.19,53.1,8.55,80.12,8.02.02,15.11.07,30.22.09,45.34,0,4.08.02,4.14,3.77,2.79,14.72-5.36,28.76-12.15,42.39-19.84,10.55-5.95,20.63-12.6,30.31-19.82,7.81-5.8,15.2-12.17,22.4-18.75,3.79-3.49,7.7-6.87,11.23-10.64,11.03-11.84,21.54-24.07,30.86-37.35,10.05-14.35,18.62-29.55,25.86-45.44,9.22-20.26,16.27-41.3,20.37-63.26,2.07-11.12,3.95-22.24,4.6-33.58.39-6.83,1.02-13.67,1.16-20.52.04-1.92.28-2.88,2.59-2.88,30.66.07,61.3.07,91.96,0,2.2,0,2.66.81,2.66,2.81Z"/></svg>