<?xml version="1.0" encoding="UTF-8"?><svg id="Layer_1" xmlns="http://www.w3.org/2000/svg" viewBox="0 0 1000 1000"><defs><style>.cls-1{fill:#262730;}.cls-2{fill:#f2f2f2;}.cls-3{fill:#c6b198;}.cls-4{fill:#fdfdfd;}</style></defs><circle class="cls-1" cx="500" cy="500" r="491.25"/><path class="cls-4" d="M837.9,442.85c.02,8.26-.61,16.45-1.33,24.67-1.28,14.9-3.96,29.52-7.78,43.94-3.2,12.05-7.25,23.82-12.17,35.29-2.51,5.85-5.07,11.67-8.01,17.32-8.09,15.54-17.29,30.36-28.24,44.06-2.79,3.5-5.53,7.07-8.61,10.33-.69.73-.61,1.08.03,1.78,11.82,12.96,22.07,27.11,31.09,42.1,8.58,14.24,16.05,29.06,21.95,44.64,1.74,4.63,1.72,4.51-2.8,6.2-13.42,5-26.81,10.08-40.21,15.14-5.73,2.16-11.47,4.3-17.15,6.56-1.83.73-2.22-.41-2.65-1.55-2.79-7.52-6.15-14.77-9.82-21.89-6.37-12.31-13.8-23.93-22.47-34.76-2.89-3.62-5.89-7.14-8.88-10.69-.9-1.07-1.58-.93-2.57-.24-11.77,8.32-24.43,15.11-37.45,21.2-13.14,6.12-26.73,11.06-40.71,14.97-9.18,2.59-18.52,4.49-27.9,6.14-5.12.9-10.31,1.51-15.51,2.03-6.95.69-13.86,1.28-20.84,1.39-2.28.05-4.61.3-6.93.38-1.2.03-1.66-.41-1.55-1.58.06-.59.02-1.2.02-1.8-.02-39.72-.02-79.45-.03-119.17-5.47-1.68-10.94-3.32-16.4-5.03-9.58-2.95-18.83-6.75-27.96-10.84-14.65-6.56-28.51-14.56-41.73-23.64-7.2-4.95-14.07-10.37-20.78-16.01-8.16-6.84-15.64-14.38-23.14-21.92-1.54-1.55-2.8-3.37-4.75-5.07v2.53c0,28.56-.02,57.13.06,85.7,0,2-.47,2.51-2.45,2.42-3.61-.18-7.23.14-10.84-.09-6.35-.41-12.69-.94-19.01-1.68-7.31-.84-14.56-2.03-21.78-3.34-6.43-1.19-12.78-2.88-19.08-4.62-10.22-2.8-20.26-6.21-30.02-10.3-10.27-4.3-20.29-9.08-29.94-14.65-6.95-4.02-13.78-8.16-20.38-12.73-6.38-4.43-12.57-9.15-18.61-14.06-8.96-7.27-17.27-15.22-25.21-23.55-7.4-7.75-14.26-16.01-20.58-24.66-5.76-7.89-11.15-16.02-16.05-24.49-5.15-8.88-9.82-17.99-13.95-27.37-4.63-10.49-8.48-21.28-11.74-32.27-2.67-8.94-4.75-18-6.44-27.19-1.22-6.66-2.21-13.33-2.97-20.03-.56-4.86-.87-9.78-1.11-14.68-.21-4.42-.24-8.83-.38-13.24-.03-1.28.34-1.63,1.61-1.61,21.55.03,43.12.03,64.67,0,1.28-.02,1.58.35,1.63,1.61.21,5.88.32,11.79.91,17.64.96,9.32,2.44,18.58,4.61,27.74,2.7,11.24,6.32,22.19,10.84,32.81,3.78,8.89,8.26,17.49,13.33,25.76,5.04,8.16,10.72,15.87,16.66,23.39,1.75,2.21,3.64,4.33,5.64,6.32,3.46,3.47,6.29,7.54,10.24,10.57,2.36,1.81,4.33,4.11,6.56,6.11,5.79,5.15,11.85,9.93,18.16,14.42,10.24,7.3,21.32,13.13,32.64,18.51,4.81,2.3,9.79,4.33,14.93,6,.44-.9.21-1.8.21-2.67.02-61.88.02-123.78-.03-185.67,0-1.96.38-2.59,2.5-2.57,21.03.09,42.07.08,63.1,0,1.83,0,2.35.37,2.35,2.28,0,7.3.41,14.61,1.37,21.83,1.63,12.23,4.07,24.29,7.78,36.1,4.01,12.73,9.17,24.95,15.51,36.66,5.5,10.16,11.88,19.75,19.16,28.76,3.82,4.74,7.81,9.31,11.96,13.77,9.15,9.85,19.4,18.38,30.26,26.29,10.56,7.68,22.02,13.68,33.71,19.3,4.75,2.28,9.66,4.3,15,6v-2.7c0-61.88,0-123.77-.08-185.67,0-2.22.58-2.63,2.7-2.62,21.03.09,42.05.06,63.09.02,1.52,0,2.18.14,2.18,2-.08,89.25-.08,178.51-.09,267.76,0,.23-.02.46-.03.67.02,10.56.05,21.11.06,31.67,0,2.85.02,2.89,2.63,1.95,10.28-3.75,20.09-8.48,29.61-13.86,7.37-4.16,14.41-8.8,21.17-13.85,5.45-4.05,10.62-8.5,15.64-13.1,2.65-2.44,5.38-4.8,7.84-7.43,7.71-8.27,15.05-16.82,21.55-26.09,7.02-10.02,13.01-20.64,18.06-31.74,6.44-14.15,11.36-28.85,14.23-44.19,1.45-7.77,2.76-15.54,3.21-23.46.27-4.77.72-9.55.81-14.33.03-1.34.2-2.01,1.81-2.01,21.41.05,42.81.05,64.23,0,1.54,0,1.86.56,1.86,1.96Z"/><path class="cls-2" d="M635.3,328.89c-.08,89.25-.08,178.51-.09,267.76,0,.23-.02.46-.03.67-.69.78-1.61.73-2.51.76-5.79.24-11.59-.14-17.35-.58-11.12-.84-22.16-2.35-33.1-4.45-4.45-.87-8.83-1.93-13.22-3-.59-.15-1.14-.35-1.63-.75-5.47-1.68-10.94-3.32-16.4-5.03-9.58-2.95-18.83-6.75-27.96-10.84-14.65-6.56-28.51-14.56-41.73-23.64-7.2-4.95-14.07-10.37-20.78-16.01-8.16-6.84-15.64-14.38-23.14-21.92-1.54-1.55-2.8-3.37-4.75-5.07v2.53c0,28.56-.02,57.13.06,85.7,0,2-.47,2.51-2.45,2.42-3.61-.18-7.23.14-10.84-.09-6.35-.41-12.69-.94-19.01-1.68-7.31-.84-14.56-2.03-21.78-3.34-6.43-1.19-12.78-2.88-19.08-4.62-10.22-2.8-20.26-6.21-30.02-10.3-10.27-4.3-20.29-9.08-29.94-14.65-6.95-4.02-13.78-8.16-20.38-12.73-6.38-4.43-12.57-9.15-18.61-14.06-8.96-7.27-17.27-15.22-25.21-23.55-7.4-7.75-14.26-16.01-20.58-24.66-5.76-7.89-11.15-16.02-16.05-24.49-5.15-8.88-9.82-17.99-13.95-27.37-4.63-10.49-8.48-21.28-11.74-32.27-2.67-8.94-4.75-18-6.44-27.19-1.22-6.66-2.21-13.33-2.97-20.03-.56-4.86-.87-9.78-1.11-14.68-.21-4.42-.24-8.83-.38-13.24-.03-1.28.34-1.63,1.61-1.61,21.55.03,43.12.03,64.67,0,1.28-.02,1.58.35,1.63,1.61.21,5.88.32,11.79.91,17.64.96,9.32,2.44,18.58,4.61,27.74,2.7,11.24,6.32,22.19,10.84,32.81,3.78,8.89,8.26,17.49,13.33,25.76,5.04,8.16,10.72,15.87,16.66,23.39,1.75,2.21,3.64,4.33,5.64,6.32,3.46,3.47,6.29,7.54,10.24,10.57,2.36,1.81,4.33,4.11,6.56,6.11,5.79,5.15,11.85,9.93,18.16,14.42,10.24,7.3,21.32,13.13,32.64,18.51,4.81,2.3,9.79,4.33,14.93,6,.44-.9.21-1.8.21-2.67.02-61.88.02-123.78-.03-185.67,0-1.96.38-2.59,2.5-2.57,21.03.09,42.07.08,63.1,0,1.83,0,2.35.37,2.35,2.28,0,7.3.41,14.61,1.37,21.83,1.63,12.23,4.07,24.29,7.78,36.1,4.01,12.73,9.17,24.95,15.51,36.66,5.5,10.16,11.88,19.75,19.16,28.76,3.82,4.74,7.81,9.31,11.96,13.77,9.15,9.85,19.4,18.38,30.26,26.29,10.56,7.68,22.02,13.68,33.71,19.3,4.75,2.28,9.66,4.3,15,6v-2.7c0-61.88,0-123.77-.08-185.67,0-2.22.58-2.63,2.7-2.62,21.03.09,42.05.06,63.09.02,1.52,0,2.18.14,2.18,2Z"/><path class="cls-3" d="M837.9,442.85c.02,8.26-.61,16.45-1.33,24.67-1.28,14.9-3.96,29.52-7.78,43.94-3.2,12.05-7.25,23.82-12.17,35.29-2.51,5.85-5.07,11.67-8.01,17.32-8.09,15.54-17.29,30.36-28.24,44.06-2.79,3.5-5.53,7.07-8.61,10.33-.69.73-.61,1.08.03,1.78,11.82,12.96,22.07,27.11,31.09,42.1,8.58,14.24,16.05,29.06,21.95,44.64,1.74,4.63,1.72,4.51-2.8,6.2-13.42,5-26.81,10.08-40.21,15.14-5.73,2.16-11.47,4.3-17.15,6.56-1.83.73-2.22-.41-2.65-1.55-2.79-7.52-6.15-14.77-9.82-21.89-6.37-12.31-13.8-23.93-22.47-34.76-2.89-3.62-5.89-7.14-8.88-10.69-.9-1.07-1.58-.93-2.57-.24-11.77,8.32-24.43,15.11-37.45,21.2-13.14,6.12-26.73,11.06-40.71,14.97-9.18,2.59-18.52,4.49-27.9,6.14-5.12.9-10.31,1.51-15.51,2.03-6.95.69-13.86,1.28-20.84,1.39-2.28.05-4.61.3-6.93.38-1.2.03-1.66-.41-1.55-1.58.06-.59.02-1.2.02-1.8-.02-39.72-.02-79.45-.03-119.17,4.07.24,7.9,1.64,11.85,2.41,18.49,3.62,37.09,5.97,55.96,5.61.02,10.56.05,21.11.06,31.67,0,2.85.02,2.89,2.63,1.95,10.28-3.75,20.09-8.48,29.61-13.86,7.37-4.16,14.41-8.8,21.17-13.85,5.45-4.05,10.62-8.5,15.64-13.1,2.65-2.44,5.38-4.8,7.84-7.43,7.71-8.27,15.05-16.82,21.55-26.09,7.02-10.02,13.01-20.64,18.06-31.74,6.44-14.15,11.36-28.85,14.23-44.19,1.45-7.77,2.76-15.54,3.21-23.46.27-4.77.72-9.55.81-14.33.03-1.34.2-2.01,1.81-2.01,21.41.05,42.81.05,64.23,0,1.54,0,1.86.56,1.86,1.96Z"/></svg>